<svg width="24" height="24" viewBox="0 0 24 24" fill="none" xmlns="http://www.w3.org/2000/svg">
<mask id="mask0_1930_6803" style="mask-type:luminance" maskUnits="userSpaceOnUse" x="1" y="0" width="22" height="24">
<path d="M22.142 0H1.79883V24H22.142V0Z" fill="white"/>
</mask>
<g mask="url(#mask0_1930_6803)">
<path d="M2.57031 7.29553V16.7045C2.57031 17.3052 2.87734 17.8606 3.37462 18.16L11.1672 22.8655C11.6644 23.1649 12.2766 23.1649 12.7739 22.8655L20.5665 18.16C21.0637 17.8606 21.3708 17.3052 21.3708 16.7045V7.29553C21.3708 6.69479 21.0637 6.13936 20.5665 5.83997L12.7739 1.13451C12.2766 0.835127 11.6644 0.835127 11.1672 1.13451L3.37274 5.83997C2.87546 6.13936 2.57031 6.69479 2.57031 7.29553Z" fill="#213147"/>
<path d="M13.6711 13.8248L12.5597 17.0117C12.5296 17.1004 12.5296 17.1969 12.5597 17.2854L14.4716 22.769L16.683 21.4335L14.0289 13.8248C13.9687 13.6495 13.7313 13.6495 13.6711 13.8248Z" fill="#12AAFF"/>
<path d="M15.9 8.46554C15.8398 8.29025 15.6024 8.29025 15.5421 8.46554L14.4308 11.6524C14.4007 11.741 14.4007 11.8376 14.4308 11.9262L17.5633 20.9037L19.7746 19.5684L15.9 8.46554Z" fill="#12AAFF"/>
<path d="M11.9704 1.48707C12.025 1.48707 12.0796 1.50283 12.1286 1.53041L20.5615 6.62191C20.6595 6.681 20.7199 6.7913 20.7199 6.90751V17.0885C20.7199 17.2068 20.6595 17.3151 20.5615 17.3741L12.1286 22.4657C12.0815 22.4951 12.025 22.5089 11.9704 22.5089C11.9158 22.5089 11.8611 22.4933 11.8122 22.4657L3.37919 17.378C3.28124 17.319 3.22096 17.2087 3.22096 17.0924V6.90948C3.22096 6.7913 3.28124 6.68298 3.37919 6.62388L11.8122 1.53238C11.8611 1.50283 11.9158 1.48707 11.9704 1.48707ZM11.9704 0C11.6709 0 11.3695 0.0807551 11.1002 0.244235L2.66906 5.33377C2.13035 5.65876 1.79883 6.25951 1.79883 6.90948V17.0906C1.79883 17.7404 2.13035 18.3413 2.66906 18.6662L11.1021 23.7578C11.3714 23.9193 11.6709 24.002 11.9723 24.002C12.2718 24.002 12.5732 23.9212 12.8425 23.7578L21.2755 18.6662C21.8142 18.3413 22.1457 17.7404 22.1457 17.0906V6.90948C22.1457 6.25951 21.8142 5.65876 21.2755 5.33377L12.8406 0.244235C12.5713 0.0807551 12.2699 0 11.9704 0Z" fill="#9DCCED"/>
<path d="M6.39258 20.9155L7.16863 18.6938L8.73015 20.0509L7.27034 21.4454L6.39258 20.9155Z" fill="#213147"/>
<path d="M11.2603 6.18071H9.12239C8.96228 6.18071 8.81913 6.2851 8.76449 6.44267L4.18164 19.5801L6.39302 20.9156L11.4392 6.44857C11.4863 6.31858 11.394 6.18071 11.2603 6.18071Z" fill="white"/>
<path d="M15.0019 6.18071H12.864C12.7039 6.18071 12.5608 6.2851 12.5061 6.44267L7.27344 21.4434L9.4848 22.7789L15.1809 6.44857C15.2261 6.31858 15.1338 6.18071 15.0019 6.18071Z" fill="white"/>
</g>
</svg>
