<svg width="24" height="25" viewBox="0 0 24 25" fill="none" xmlns="http://www.w3.org/2000/svg">
<path d="M9.5 14.5C11.1569 14.5 12.5 15.8431 12.5 17.5C12.5 19.1568 11.1569 20.5 9.5 20.5C7.84315 20.5 6.5 19.1568 6.5 17.5C6.5 15.8431 7.84315 14.5 9.5 14.5Z" stroke="#008080" stroke-width="1.5"/>
<path d="M14.5 4.49998C12.8431 4.49998 11.5 5.84312 11.5 7.49998C11.5 9.15683 12.8431 10.5 14.5 10.5C16.1569 10.5 17.5 9.15683 17.5 7.49998C17.5 5.84312 16.1569 4.49998 14.5 4.49998Z" stroke="#008080" stroke-width="1.5"/>
<path d="M15 17.4585L22 17.4585" stroke="#008080" stroke-width="1.5" stroke-linecap="round"/>
<path d="M9 7.4585L2 7.4585" stroke="#008080" stroke-width="1.5" stroke-linecap="round"/>
<path d="M2 17.4585L4 17.4585" stroke="#008080" stroke-width="1.5" stroke-linecap="round"/>
<path d="M22 7.4585L20 7.4585" stroke="#008080" stroke-width="1.5" stroke-linecap="round"/>
</svg>
