<svg width="24" height="24" viewBox="0 0 24 24" fill="none" xmlns="http://www.w3.org/2000/svg">
<g clip-path="url(#clip0_1930_762)">
<path d="M12 24C18.6274 24 24 18.6274 24 12C24 5.37258 18.6274 0 12 0C5.37258 0 0 5.37258 0 12C0 18.6274 5.37258 24 12 24Z" fill="#627EEA"/>
<path d="M12.373 3V9.6525L17.9958 12.165L12.373 3Z" fill="white" fill-opacity="0.602"/>
<path d="M12.3735 3L6.75 12.165L12.3735 9.6525V3Z" fill="white"/>
<path d="M12.373 16.4759V20.9962L17.9995 13.2119L12.373 16.4759Z" fill="white" fill-opacity="0.602"/>
<path d="M12.3735 20.9962V16.4752L6.75 13.212L12.3735 20.9962Z" fill="white"/>
<path d="M12.373 15.4298L17.9958 12.1651L12.373 9.65405V15.4298Z" fill="white" fill-opacity="0.2"/>
<path d="M6.75 12.1651L12.3735 15.4298V9.65405L6.75 12.1651Z" fill="white" fill-opacity="0.602"/>
</g>
<rect x="0.375" y="0.375" width="23.25" height="23.25" rx="11.625" stroke="#333333" stroke-opacity="0.1" stroke-width="0.75"/>
<defs>
<clipPath id="clip0_1930_762">
<rect width="24" height="24" rx="12" fill="white"/>
</clipPath>
</defs>
</svg>
