<svg width="48" height="49" viewBox="0 0 48 49" fill="none" xmlns="http://www.w3.org/2000/svg">
<path d="M8.02193 42.3359H39.9776C40.4966 42.3358 41.0067 42.2011 41.458 41.9449C41.9094 41.6887 42.2866 41.3197 42.5527 40.8741C42.8188 40.4285 42.9647 39.9215 42.9763 39.4026C42.9878 38.8837 42.8645 38.3707 42.6185 37.9137L26.6416 8.24187C25.5082 6.13812 22.4913 6.13812 21.3579 8.24187L5.38099 37.9137C5.13494 38.3707 5.01167 38.8837 5.0232 39.4026C5.03474 39.9215 5.1807 40.4285 5.44681 40.8741C5.71292 41.3197 6.09008 41.6887 6.54144 41.9449C6.9928 42.2011 7.50291 42.3358 8.02193 42.3359Z" stroke="#E53030" stroke-width="3.6" stroke-linecap="round" stroke-linejoin="round"/>
<path d="M23.4612 20.1464L23.8919 29.3L24.3218 20.1501C24.3245 20.0917 24.3152 20.0332 24.2945 19.9785C24.2738 19.9237 24.2421 19.8737 24.2015 19.8316C24.1608 19.7894 24.112 19.756 24.058 19.7334C24.004 19.7108 23.9459 19.6994 23.8874 19.7C23.8299 19.7005 23.773 19.7126 23.7203 19.7355C23.6675 19.7584 23.6198 19.7916 23.5801 19.8332C23.5404 19.8749 23.5094 19.924 23.489 19.9778C23.4686 20.0316 23.4591 20.0889 23.4612 20.1464Z" stroke="#E53030" stroke-width="3" stroke-linecap="round" stroke-linejoin="round"/>
<path d="M24 36.65C23.6292 36.65 23.2666 36.5401 22.9583 36.334C22.65 36.128 22.4096 35.8352 22.2677 35.4926C22.1258 35.1499 22.0887 34.7729 22.161 34.4092C22.2334 34.0455 22.412 33.7114 22.6742 33.4492C22.9364 33.187 23.2705 33.0084 23.6342 32.9361C23.9979 32.8637 24.3749 32.9008 24.7175 33.0427C25.0601 33.1847 25.353 33.425 25.559 33.7333C25.765 34.0417 25.875 34.4042 25.875 34.775C25.875 35.2723 25.6775 35.7492 25.3258 36.1009C24.9742 36.4525 24.4973 36.65 24 36.65Z" fill="#E53030"/>
</svg>
