<svg width="24" height="24" viewBox="0 0 24 24" fill="none" xmlns="http://www.w3.org/2000/svg">
<rect width="24" height="24" rx="12" fill="#0C15FA"/>
<path d="M11.6194 4.15326C12.0083 3.94891 12.6 3.94891 12.9889 4.15326L16.957 6.2385C17.1912 6.36162 17.3199 6.545 17.3429 6.73437H17.3466V17.216C17.3415 17.4225 17.2116 17.6276 16.957 17.7615L12.9889 19.8467C12.6 20.0511 12.0083 20.0511 11.6194 19.8467L7.65132 17.7615C7.39772 17.6282 7.27602 17.4216 7.27 17.216C7.2694 17.1957 7.26932 17.1788 7.2699 17.1648L7.26987 6.80162C7.26947 6.79025 7.26943 6.77899 7.26976 6.76774L7.27 6.73437H7.27177C7.2894 6.54287 7.41218 6.36425 7.65132 6.2385L11.6194 4.15326ZM16.722 12.582L12.9889 14.5437C12.6 14.7481 12.0083 14.7481 11.6194 14.5437L7.8945 12.5864V17.1952L11.6194 19.1423C11.8298 19.2542 12.0481 19.3632 12.2615 19.3771L12.3042 19.3785C12.5266 19.3792 12.7425 19.2668 12.9615 19.1605L16.722 17.1785V12.582ZM6.62459 16.9881C6.62459 17.3896 6.6715 17.6536 6.76464 17.8396C6.84184 17.9937 6.95767 18.1115 7.16917 18.2548L7.18125 18.263C7.22766 18.2941 7.2788 18.3267 7.34103 18.365L7.41443 18.4097L7.63982 18.5451L7.31656 19.0768L7.06429 18.9252L7.02189 18.8993C6.94895 18.8545 6.88849 18.8161 6.8321 18.7782C6.22931 18.3738 6.0045 17.9331 6.00006 17.016L6 16.9881H6.62459ZM11.9918 9.77261C11.9629 9.78249 11.9358 9.79386 11.9111 9.80686L7.94302 11.8921C7.93886 11.8944 7.93488 11.8965 7.93111 11.8986L7.92775 11.9006L7.93397 11.9041L7.94302 11.909L11.9111 13.9942C11.9358 14.0072 11.9629 14.0186 11.9918 14.0285V9.77261ZM12.6165 9.77261V14.0285C12.6454 14.0186 12.6725 14.0072 12.6972 13.9942L16.6654 11.909C16.6695 11.9067 16.6735 11.9046 16.6772 11.9025L16.6806 11.9006L16.6744 11.897L16.6654 11.8921L12.6972 9.80686C12.6725 9.79386 12.6454 9.78249 12.6165 9.77261ZM16.722 7.47787L13.1624 9.34849L16.722 11.2191V7.47787ZM7.8945 7.48224V11.2147L11.4459 9.34849L7.8945 7.48224ZM12.6972 4.70277C12.4908 4.59432 12.1175 4.59432 11.9111 4.70277L7.94302 6.78799C7.93886 6.79024 7.93488 6.79237 7.93111 6.7945L7.92775 6.79649L7.93397 6.79999L7.94302 6.80487L11.9111 8.89012C12.1175 8.99862 12.4908 8.99862 12.6972 8.89012L16.6654 6.80487C16.6695 6.80275 16.6735 6.80062 16.6772 6.79837L16.6806 6.79649L16.6744 6.79287L16.6654 6.78799L12.6972 4.70277ZM17.3084 4.93144L17.5607 5.08302L17.6031 5.10894C17.676 5.15372 17.7365 5.19221 17.7929 5.23004C18.3957 5.63437 18.6205 6.07525 18.6248 6.99224L18.625 7.02024H18.0004C18.0004 6.61862 17.9535 6.35462 17.8604 6.16875C17.7831 6.01462 17.6674 5.89675 17.4559 5.7535L17.4437 5.74531C17.3974 5.71417 17.3462 5.68156 17.284 5.64322L17.2106 5.5985L16.9851 5.46317L17.3084 4.93144Z" fill="white"/>
</svg>
