<svg width="24" height="24" viewBox="0 0 24 24" fill="none" xmlns="http://www.w3.org/2000/svg">
<rect width="24" height="24" rx="12" fill="#8247E5"/>
<path d="M15.8794 9.10175L19.6744 11.2749C19.8752 11.3899 20 11.6042 20 11.8343V16.1812C20 16.411 19.8752 16.6257 19.6744 16.7407L15.8794 18.9138C15.6787 19.0289 15.429 19.0286 15.2282 18.9138L11.4332 16.7407C11.2325 16.6257 11.1076 16.4114 11.1076 16.1812V8.41372L8.44653 6.89019L5.78541 8.41372V11.4618L8.44653 12.9853L10.202 11.9804V14.025L8.7721 14.8436C8.67344 14.9 8.56083 14.9297 8.44653 14.9297C8.33222 14.9297 8.21961 14.9 8.12095 14.8436L4.32558 12.6702C4.12486 12.5551 4 12.3408 4 12.1107V7.76414C4 7.53435 4.12486 7.31974 4.32558 7.20463L8.12061 5.03124C8.32133 4.91648 8.5707 4.91648 8.77176 5.03124L12.5668 7.20428C12.7675 7.31939 12.8924 7.53401 12.8924 7.7638V15.5313L12.9403 15.5587L15.5535 17.0549L18.2145 15.531V12.4832L15.5535 10.9594L13.8007 11.9629V9.91836L15.2279 9.10074C15.4286 8.98601 15.6783 8.98601 15.879 9.10074L15.8794 9.10175Z" fill="white"/>
</svg>
