<svg width="20" height="20" viewBox="0 0 20 20" fill="none" xmlns="http://www.w3.org/2000/svg">
<path d="M8.63633 2.49756C7.42268 2.49756 6.23628 2.85745 5.22717 3.53172C4.21806 4.20598 3.43155 5.16435 2.9671 6.28561C2.50266 7.40688 2.38114 8.64069 2.61791 9.83102C2.85468 11.0214 3.43911 12.1147 4.29729 12.9729C5.15547 13.8311 6.24886 14.4155 7.43919 14.6523C8.62952 14.8891 9.86333 14.7676 10.9846 14.3031C12.1059 13.8387 13.0642 13.0522 13.7385 12.043C14.4128 11.0339 14.7727 9.84754 14.7727 8.63389C14.7726 7.00646 14.126 5.44572 12.9753 4.29496C11.8245 3.1442 10.2638 2.49766 8.63633 2.49756V2.49756Z" stroke="white" stroke-width="1.5" stroke-miterlimit="10"/>
<path d="M13.2144 13.2134L17.4999 17.4989" stroke="white" stroke-width="1.5" stroke-miterlimit="10" stroke-linecap="round"/>
</svg>
